<svg xmlns="http://www.w3.org/2000/svg" viewBox="0 0 960 960">
  <g transform="translate(80 294) scale(6.05)" fill="#fff">
    <path d="M23.157,110.5H11.033v-3.915H0v27.383H11.033V120.892H23.794c9.882,0,17.693-5.57,19.511-14.3H31.57C30.2,109.136,27.284,110.5,23.157,110.5Z" transform="translate(0 -72.473)"/>
    <path d="M152.9,0A5.88,5.88,0,0,0,147,5.988a5.943,5.943,0,0,0,11.885,0A5.9,5.9,0,0,0,152.9,0Z" transform="translate(-99.951 0)"/>
    <path d="M160.276,106.588H149.315v27.383h10.961Z" transform="translate(-101.524 -72.473)"/>
    <path d="M202.59,113.94l-16.029,20.031h13.133l9.518-11.982,9.341,11.982h13.522l-15.93-19.456,6.431-7.927H196.408Z" transform="translate(-126.849 -72.473)"/>
    <path d="M335.342,0a5.88,5.88,0,0,0-5.9,5.987,5.944,5.944,0,0,0,11.887,0A5.9,5.9,0,0,0,335.342,0Z" transform="translate(-224 0)"/>
    <path d="M342.719,106.588H331.758v27.383h10.961Z" transform="translate(-225.573 -72.473)"/>
    <path d="M381.764,11.879a5.876,5.876,0,0,0,5.987-5.9,5.942,5.942,0,1,0-11.884.006,5.855,5.855,0,0,0,5.9,5.891Z" transform="translate(-255.564 0)"/>
    <path d="M389.14,106.588H378.179v27.383H389.14Z" transform="translate(-257.136 -72.473)"/>
  </g>
</svg>
